{
    "asset": {
        "version": "2.0",
        "generator": "Open Asset Import Library (assimp v5.4.0)"
    },
    "extensionsUsed": [
        "KHR_materials_volume",
        "FB_ngon_encoding"
    ],
    "accessors": [
        {
            "bufferView": 0,
            "byteOffset": 0,
            "componentType": 5126,
            "count": 296,
            "type": "VEC3",
            "max": [
                310.96563720703125,
                310.9656066894531,
                -231.419677734375
            ],
            "min": [
                -310.9656066894531,
                -310.96563720703125,
                -234.41973876953125
            ]
        },
        {
            "bufferView": 1,
            "byteOffset": 0,
            "componentType": 5126,
            "count": 296,
            "type": "VEC3",
            "max": [
                0.0,
                1.0,
                0.0
            ],
            "min": [
                0.0,
                1.0,
                0.0
            ]
        },
        {
            "bufferView": 2,
            "byteOffset": 0,
            "componentType": 5126,
            "count": 296,
            "type": "VEC2",
            "max": [
                9.999985694885254,
                2.0
            ],
            "min": [
                0.0,
                1.0
            ]
        },
        {
            "bufferView": 3,
            "byteOffset": 0,
            "componentType": 5125,
            "count": 1152,
            "type": "SCALAR",
            "max": [
                295
            ],
            "min": [
                0
            ]
        },
        {
            "bufferView": 4,
            "byteOffset": 0,
            "componentType": 5126,
            "count": 632299,
            "type": "VEC3",
            "max": [
                324.1951904296875,
                335.1754455566406,
                0.21542200446128845
            ],
            "min": [
                -324.19512939453125,
                -324.1951904296875,
                -328.10235595703125
            ]
        },
        {
            "bufferView": 5,
            "byteOffset": 0,
            "componentType": 5126,
            "count": 632299,
            "type": "VEC3",
            "max": [
                1.0,
                1.0,
                1.0
            ],
            "min": [
                -1.0,
                -1.0,
                -1.0
            ]
        },
        {
            "bufferView": 6,
            "byteOffset": 0,
            "componentType": 5126,
            "count": 632299,
            "type": "VEC2",
            "max": [
                9.999985694885254,
                33.333335876464844
            ],
            "min": [
                0.0,
                0.0
            ]
        },
        {
            "bufferView": 7,
            "byteOffset": 0,
            "componentType": 5125,
            "count": 977178,
            "type": "SCALAR",
            "max": [
                632298
            ],
            "min": [
                0
            ]
        },
        {
            "bufferView": 8,
            "byteOffset": 0,
            "componentType": 5126,
            "count": 125046,
            "type": "VEC3",
            "max": [
                297.7101745605469,
                297.71014404296875,
                -184.83934020996094
            ],
            "min": [
                -297.71014404296875,
                -297.710205078125,
                -372.41168212890625
            ]
        },
        {
            "bufferView": 9,
            "byteOffset": 0,
            "componentType": 5126,
            "count": 125046,
            "type": "VEC3",
            "max": [
                1.0,
                1.0,
                0.9999960660934448
            ],
            "min": [
                -1.0,
                -1.0,
                -0.9999959468841553
            ]
        },
        {
            "bufferView": 10,
            "byteOffset": 0,
            "componentType": 5126,
            "count": 125046,
            "type": "VEC2",
            "max": [
                1.0,
                1.0
            ],
            "min": [
                0.0,
                0.0
            ]
        },
        {
            "bufferView": 11,
            "byteOffset": 0,
            "componentType": 5125,
            "count": 200970,
            "type": "SCALAR",
            "max": [
                125045
            ],
            "min": [
                0
            ]
        },
        {
            "bufferView": 12,
            "byteOffset": 0,
            "componentType": 5126,
            "count": 512,
            "type": "VEC3",
            "max": [
                124.35650634765625,
                119.53929901123047,
                -153.1265106201172
            ],
            "min": [
                -115.05685424804688,
                -115.02008819580078,
                -161.84518432617188
            ]
        },
        {
            "bufferView": 13,
            "byteOffset": 0,
            "componentType": 5126,
            "count": 512,
            "type": "VEC3",
            "max": [
                1.0,
                1.0,
                1.0
            ],
            "min": [
                -1.0,
                -1.0,
                -1.0
            ]
        },
        {
            "bufferView": 14,
            "byteOffset": 0,
            "componentType": 5126,
            "count": 512,
            "type": "VEC2",
            "max": [
                1.0,
                1.0
            ],
            "min": [
                0.0,
                0.0
            ]
        },
        {
            "bufferView": 15,
            "byteOffset": 0,
            "componentType": 5125,
            "count": 1296,
            "type": "SCALAR",
            "max": [
                511
            ],
            "min": [
                0
            ]
        },
        {
            "bufferView": 16,
            "byteOffset": 0,
            "componentType": 5126,
            "count": 5312,
            "type": "VEC3",
            "max": [
                74.97100067138672,
                76.55999755859375,
                -203.97543334960938
            ],
            "min": [
                -74.97100067138672,
                -76.55999755859375,
                -310.7696228027344
            ]
        },
        {
            "bufferView": 17,
            "byteOffset": 0,
            "componentType": 5126,
            "count": 5312,
            "type": "VEC3",
            "max": [
                0.9975650310516357,
                0.9974101781845093,
                0.4460044801235199
            ],
            "min": [
                -0.9975650310516357,
                -0.9974101781845093,
                -0.9989156126976013
            ]
        },
        {
            "bufferView": 18,
            "byteOffset": 0,
            "componentType": 5126,
            "count": 5312,
            "type": "VEC2",
            "max": [
                49.99882888793945,
                16.406047821044922
            ],
            "min": [
                0.0,
                0.0
            ]
        },
        {
            "bufferView": 19,
            "byteOffset": 0,
            "componentType": 5125,
            "count": 7872,
            "type": "SCALAR",
            "max": [
                5311
            ],
            "min": [
                0
            ]
        },
        {
            "bufferView": 20,
            "byteOffset": 0,
            "componentType": 5126,
            "count": 3894,
            "type": "VEC3",
            "max": [
                73.0,
                73.0,
                -158.53872680664063
            ],
            "min": [
                -73.0,
                -73.0,
                -213.53872680664063
            ]
        },
        {
            "bufferView": 21,
            "byteOffset": 0,
            "componentType": 5126,
            "count": 3894,
            "type": "VEC3",
            "max": [
                0.9961909055709839,
                0.9961909055709839,
                1.0
            ],
            "min": [
                -0.9961909055709839,
                -0.9961909055709839,
                -1.0
            ]
        },
        {
            "bufferView": 22,
            "byteOffset": 0,
            "componentType": 5126,
            "count": 3894,
            "type": "VEC2",
            "max": [
                25.000335693359375,
                9.909055709838867
            ],
            "min": [
                0.0,
                0.0
            ]
        },
        {
            "bufferView": 23,
            "byteOffset": 0,
            "componentType": 5125,
            "count": 7992,
            "type": "SCALAR",
            "max": [
                3893
            ],
            "min": [
                0
            ]
        },
        {
            "bufferView": 24,
            "byteOffset": 0,
            "componentType": 5126,
            "count": 3684,
            "type": "VEC3",
            "max": [
                164.09927368164063,
                163.94786071777344,
                -34.82500076293945
            ],
            "min": [
                -157.91700744628906,
                -163.8759765625,
                -188.8251190185547
            ]
        },
        {
            "bufferView": 25,
            "byteOffset": 0,
            "componentType": 5126,
            "count": 3684,
            "type": "VEC3",
            "max": [
                1.0,
                1.0,
                1.0
            ],
            "min": [
                -1.0,
                -1.0,
                -1.0
            ]
        },
        {
            "bufferView": 26,
            "byteOffset": 0,
            "componentType": 5126,
            "count": 3684,
            "type": "VEC2",
            "max": [
                2.9999990463256836,
                1.041664958000183
            ],
            "min": [
                2.0099000930786133,
                -9.5367431640625e-7
            ]
        },
        {
            "bufferView": 27,
            "byteOffset": 0,
            "componentType": 5125,
            "count": 8112,
            "type": "SCALAR",
            "max": [
                3683
            ],
            "min": [
                0
            ]
        },
        {
            "bufferView": 28,
            "byteOffset": 0,
            "componentType": 5126,
            "count": 11756,
            "type": "VEC3",
            "max": [
                162.14369201660156,
                157.72169494628906,
                -34.98377227783203
            ],
            "min": [
                -152.9744110107422,
                -157.62417602539063,
                -160.41598510742188
            ]
        },
        {
            "bufferView": 29,
            "byteOffset": 0,
            "componentType": 5126,
            "count": 11756,
            "type": "VEC3",
            "max": [
                1.0,
                1.0,
                1.0
            ],
            "min": [
                -1.0,
                -1.0,
                -1.0
            ]
        },
        {
            "bufferView": 30,
            "byteOffset": 0,
            "componentType": 5126,
            "count": 11756,
            "type": "VEC2",
            "max": [
                4.631566047668457,
                0.9639639854431152
            ],
            "min": [
                -0.6315770149230957,
                0.06306302547454834
            ]
        },
        {
            "bufferView": 31,
            "byteOffset": 0,
            "componentType": 5125,
            "count": 25167,
            "type": "SCALAR",
            "max": [
                11755
            ],
            "min": [
                0
            ]
        }
    ],
    "buffers": [
        {
            "byteLength": 29968524,
            "uri": "untitled_0.bin"
        }
    ],
    "bufferViews": [
        {
            "buffer": 0,
            "byteOffset": 0,
            "byteLength": 3552,
            "target": 34962
        },
        {
            "buffer": 0,
            "byteOffset": 3552,
            "byteLength": 3552,
            "target": 34962
        },
        {
            "buffer": 0,
            "byteOffset": 7104,
            "byteLength": 2368,
            "target": 34962
        },
        {
            "buffer": 0,
            "byteOffset": 9472,
            "byteLength": 4608,
            "target": 34963
        },
        {
            "buffer": 0,
            "byteOffset": 14080,
            "byteLength": 7587588,
            "target": 34962
        },
        {
            "buffer": 0,
            "byteOffset": 7601668,
            "byteLength": 7587588,
            "target": 34962
        },
        {
            "buffer": 0,
            "byteOffset": 15189256,
            "byteLength": 5058392,
            "target": 34962
        },
        {
            "buffer": 0,
            "byteOffset": 20247648,
            "byteLength": 3908712,
            "target": 34963
        },
        {
            "buffer": 0,
            "byteOffset": 24156360,
            "byteLength": 1500552,
            "target": 34962
        },
        {
            "buffer": 0,
            "byteOffset": 25656912,
            "byteLength": 1500552,
            "target": 34962
        },
        {
            "buffer": 0,
            "byteOffset": 27157464,
            "byteLength": 1000368,
            "target": 34962
        },
        {
            "buffer": 0,
            "byteOffset": 28157832,
            "byteLength": 803880,
            "target": 34963
        },
        {
            "buffer": 0,
            "byteOffset": 28961712,
            "byteLength": 6144,
            "target": 34962
        },
        {
            "buffer": 0,
            "byteOffset": 28967856,
            "byteLength": 6144,
            "target": 34962
        },
        {
            "buffer": 0,
            "byteOffset": 28974000,
            "byteLength": 4096,
            "target": 34962
        },
        {
            "buffer": 0,
            "byteOffset": 28978096,
            "byteLength": 5184,
            "target": 34963
        },
        {
            "buffer": 0,
            "byteOffset": 28983280,
            "byteLength": 63744,
            "target": 34962
        },
        {
            "buffer": 0,
            "byteOffset": 29047024,
            "byteLength": 63744,
            "target": 34962
        },
        {
            "buffer": 0,
            "byteOffset": 29110768,
            "byteLength": 42496,
            "target": 34962
        },
        {
            "buffer": 0,
            "byteOffset": 29153264,
            "byteLength": 31488,
            "target": 34963
        },
        {
            "buffer": 0,
            "byteOffset": 29184752,
            "byteLength": 46728,
            "target": 34962
        },
        {
            "buffer": 0,
            "byteOffset": 29231480,
            "byteLength": 46728,
            "target": 34962
        },
        {
            "buffer": 0,
            "byteOffset": 29278208,
            "byteLength": 31152,
            "target": 34962
        },
        {
            "buffer": 0,
            "byteOffset": 29309360,
            "byteLength": 31968,
            "target": 34963
        },
        {
            "buffer": 0,
            "byteOffset": 29341328,
            "byteLength": 44208,
            "target": 34962
        },
        {
            "buffer": 0,
            "byteOffset": 29385536,
            "byteLength": 44208,
            "target": 34962
        },
        {
            "buffer": 0,
            "byteOffset": 29429744,
            "byteLength": 29472,
            "target": 34962
        },
        {
            "buffer": 0,
            "byteOffset": 29459216,
            "byteLength": 32448,
            "target": 34963
        },
        {
            "buffer": 0,
            "byteOffset": 29491664,
            "byteLength": 141072,
            "target": 34962
        },
        {
            "buffer": 0,
            "byteOffset": 29632736,
            "byteLength": 141072,
            "target": 34962
        },
        {
            "buffer": 0,
            "byteOffset": 29773808,
            "byteLength": 94048,
            "target": 34962
        },
        {
            "buffer": 0,
            "byteOffset": 29867856,
            "byteLength": 100668,
            "target": 34963
        }
    ],
    "materials": [
        {
            "name": "Marbre_1",
            "pbrMetallicRoughness": {
                "baseColorFactor": [
                    0.800000011920929,
                    0.800000011920929,
                    0.800000011920929,
                    1.0
                ],
                "metallicFactor": 0.0
            },
            "doubleSided": true
        }
    ],
    "meshes": [
        {
            "name": "meshes[0]",
            "primitives": [
                {
                    "mode": 1,
                    "material": 0,
                    "indices": 3,
                    "attributes": {
                        "POSITION": 0,
                        "NORMAL": 1,
                        "TEXCOORD_0": 2
                    }
                },
                {
                    "mode": 4,
                    "material": 0,
                    "indices": 7,
                    "attributes": {
                        "POSITION": 4,
                        "NORMAL": 5,
                        "TEXCOORD_0": 6
                    }
                }
            ]
        },
        {
            "name": "meshes[1]",
            "primitives": [
                {
                    "mode": 4,
                    "material": 0,
                    "indices": 11,
                    "attributes": {
                        "POSITION": 8,
                        "NORMAL": 9,
                        "TEXCOORD_0": 10
                    }
                }
            ]
        },
        {
            "name": "meshes[2]",
            "primitives": [
                {
                    "mode": 4,
                    "material": 0,
                    "indices": 15,
                    "attributes": {
                        "POSITION": 12,
                        "NORMAL": 13,
                        "TEXCOORD_0": 14
                    }
                }
            ]
        },
        {
            "name": "meshes[3]",
            "primitives": [
                {
                    "mode": 4,
                    "material": 0,
                    "indices": 19,
                    "attributes": {
                        "POSITION": 16,
                        "NORMAL": 17,
                        "TEXCOORD_0": 18
                    }
                }
            ]
        },
        {
            "name": "meshes[4]",
            "primitives": [
                {
                    "mode": 4,
                    "material": 0,
                    "indices": 23,
                    "attributes": {
                        "POSITION": 20,
                        "NORMAL": 21,
                        "TEXCOORD_0": 22
                    }
                }
            ]
        },
        {
            "name": "meshes[5]",
            "primitives": [
                {
                    "mode": 4,
                    "material": 0,
                    "indices": 27,
                    "attributes": {
                        "POSITION": 24,
                        "NORMAL": 25,
                        "TEXCOORD_0": 26
                    }
                }
            ]
        },
        {
            "name": "meshes[6]",
            "primitives": [
                {
                    "mode": 4,
                    "material": 0,
                    "indices": 31,
                    "attributes": {
                        "POSITION": 28,
                        "NORMAL": 29,
                        "TEXCOORD_0": 30
                    }
                }
            ]
        }
    ],
    "nodes": [
        {
            "name": "untitled",
            "children": [
                1
            ]
        },
        {
            "name": "tajmahal",
            "matrix": [
                1.0,
                0.0,
                0.0,
                0.0,
                0.0,
                -1.3435885648505064e-7,
                1.0000001192092896,
                0.0,
                0.0,
                -1.0000001192092896,
                -1.3435885648505064e-7,
                0.0,
                0.0,
                0.0,
                0.0,
                1.0
            ],
            "children": [
                2,
                3,
                4,
                5,
                6,
                7,
                8
            ],
            "extras": {
                "name": "tajmahal"
            }
        },
        {
            "name": "tajmahal_1",
            "mesh": 0
        },
        {
            "name": "tajmahal_2",
            "mesh": 1
        },
        {
            "name": "tajmahal_3",
            "mesh": 2
        },
        {
            "name": "tajmahal_4",
            "mesh": 3
        },
        {
            "name": "tajmahal_5",
            "mesh": 4
        },
        {
            "name": "tajmahal_6",
            "mesh": 5
        },
        {
            "name": "tajmahal_7",
            "mesh": 6
        }
    ],
    "scenes": [
        {
            "nodes": [
                0
            ]
        }
    ],
    "scene": 0
}